<?xml version="1.0" encoding="UTF-8"?>
<svg width="16px" height="28px" viewBox="0 0 16 28" version="1.1" xmlns="http://www.w3.org/2000/svg" xmlns:xlink="http://www.w3.org/1999/xlink">
    <title>音量备份</title>
    <g id="页面1" stroke="none" stroke-width="1" fill="none" fill-rule="evenodd">
        <g id="c.物理量icon" transform="translate(-54.000000, -576.000000)" fill="currentcolor">
            <g id="七合一" transform="translate(40.000000, 568.000000)">
                <path d="M25.9431594,33.3770492 L25.9431594,36 L18.1965185,36 L18.1965185,33.3770492 L25.9431594,33.3770492 Z M29.3332797,29.6405399 L29.3232623,29.8400009 C29.2067601,31.6178352 28.3213242,32.9180328 22,32.9180328 C15.4445526,32.9180328 14.7351087,31.5197407 14.6667203,29.6405399 L29.3332797,29.6405399 Z M28.8247533,26.9502295 L29.3765121,27.8191692 C29.5882031,28.1528842 29.4892832,28.595023 29.1555683,28.8067141 C29.0409459,28.8794244 28.9080068,28.9180328 28.7722678,28.9180328 L15.3602186,28.9180328 C14.9650241,28.9180328 14.6446556,28.5976643 14.6446556,28.2024697 C14.6446556,28.0667307 14.683264,27.9337916 14.7559743,27.8191692 L15.3057533,26.9502295 L28.8247533,26.9502295 Z M28.6860157,24.3272951 L29.3765121,25.4147977 C29.5755243,25.7285254 29.5000182,26.1380783 29.2129869,26.3618988 L14.9177214,26.3604766 C14.7514245,26.2294484 14.6446556,26.0262419 14.6446556,25.7980982 C14.6446556,25.6623592 14.683264,25.52942 14.7559743,25.4147977 L15.4440157,24.3272951 L28.6860157,24.3272951 Z M28.7377533,21.7042295 L29.4836446,23.0464585 C29.6073343,23.2693014 29.5994158,23.5295995 29.4855121,23.7378016 L14.6472924,23.7384647 C14.5909711,23.6362147 14.5589267,23.5187128 14.5589267,23.3937266 C14.5589267,23.2722138 14.5898707,23.1527024 14.6488418,23.0464585 L15.3927533,21.7042295 L28.7377533,21.7042295 Z M24.6764523,8 C26.5407801,8 27.1527094,9.02366743 27.3038406,10.4158171 C29.5974824,10.9731094 29.9509644,12.0047963 30,13.2461824 L25.603,13.246 L25.603,14.426 L29.7404186,14.4262295 L29.7397533,21.1142295 L14.3927533,21.1142295 L14.3930369,14.4262295 L18.263,14.426 L18.263,13.246 L14,13.2461824 C14.0497471,11.9867831 14.4128402,10.9432128 16.7977245,10.3914957 C16.9532219,9.72800593 17.2854347,9.31147541 17.9963352,9.31147541 C18.5825442,9.31147541 18.9112584,9.59470208 19.0955835,10.0658041 C19.9222653,10.0013022 20.8833942,9.96721311 22,9.96721311 L22.1173345,9.96759581 C22.3511483,8.80942106 23.0186601,8 24.6764523,8 Z M24.268,14.426 L24.268,13.246 L19.597,13.246 L19.597,14.426 L24.268,14.426 Z" id="形状结合"></path>
            </g>
        </g>
    </g>
</svg>